<svg width="365" height="264" viewBox="0 0 365 264" fill="none" xmlns="http://www.w3.org/2000/svg">
<path d="M187.2 259.374L26.7001 164.603C21.5905 161.733 17.2098 157.029 22.1899 153.943L183.261 61.1886C185.676 59.6909 189.343 58.7094 191.805 60.1417L360.261 157.841C365.37 160.805 366.287 169.063 361.196 172.054L208.351 259.226C205.143 261.085 201.505 262.077 197.796 262.103C194.087 262.129 190.435 261.188 187.2 259.374V259.374Z" fill="#5B36A0"/>
<path d="M187.2 255L26.7001 160.226C21.5905 157.354 17.2098 152.65 22.1899 149.565L183.26 56.8118C185.676 55.3156 189.343 54.3341 191.805 55.7649L360.261 153.465C365.37 156.43 366.287 164.686 361.196 167.678L208.351 254.849C205.143 256.709 201.505 257.701 197.796 257.727C194.087 257.753 190.435 256.814 187.2 255Z" fill="url(#paint0_radial_117_4937)"/>
<path style="mix-blend-mode:multiply" opacity="0.25" d="M200.434 129.958L168.764 148.015C168.764 148.015 217.551 177.761 227.527 181.95L245.767 155.766" fill="url(#paint1_linear_117_4937)"/>
<path style="mix-blend-mode:multiply" opacity="0.25" d="M189.493 216.586L157.815 198.566L126.136 216.623C126.136 216.623 142.634 226.685 158.405 235.924C168.418 228.846 178.44 221.692 189.493 216.585V216.586Z" fill="url(#paint2_linear_117_4937)"/>
<path style="mix-blend-mode:multiply" opacity="0.46" d="M121.242 105.308L101.148 116.764C101.148 116.764 102.85 127.265 112.828 131.454L139.135 114.622" fill="url(#paint3_linear_117_4937)"/>
<path d="M126.825 116.05C133.518 116.05 138.944 112.232 138.944 107.522C138.944 102.812 133.518 98.9934 126.825 98.9934C120.131 98.9934 114.705 102.812 114.705 107.522C114.705 112.232 120.131 116.05 126.825 116.05Z" fill="#68E1FD"/>
<path d="M126.816 106.203C131.83 106.203 135.894 104.541 135.894 102.49C135.894 100.44 131.83 98.7782 126.816 98.7782C121.802 98.7782 117.737 100.44 117.737 102.49C117.737 104.541 121.802 106.203 126.816 106.203Z" fill="#004285"/>
<path d="M126.488 96.3004C126.488 94.6268 126.432 92.9517 126.301 91.278C126.263 90.8418 126.222 90.4085 126.179 89.9781L126.085 89.1275C126.085 88.8759 125.954 88.1925 125.954 88.2579C125.898 87.9148 125.838 87.5745 125.777 87.2401C124.787 81.5575 122.578 76.1564 119.301 71.408C118.068 74.34 117.453 77.4946 117.494 80.6749C117.494 81.6099 117.569 82.5448 117.644 83.4231V83.9757C118.013 86.1449 118.577 88.2765 119.329 90.3445C119.865 91.8519 120.519 93.3148 121.284 94.7199C122.11 96.3017 123.006 97.846 123.97 99.3482C124.719 100.526 125.431 101.573 126.152 102.575C126.376 100.49 126.478 98.3943 126.487 96.3004H126.488ZM121.725 77.4759C121.773 77.2604 121.773 77.037 121.725 76.8216C121.955 77.0586 122.183 77.3014 122.409 77.5515C122.184 77.4874 121.949 77.4618 121.715 77.4759H121.725Z" fill="#999A1C"/>
<path d="M129.605 97.5902C130.54 96.1798 131.365 94.7838 132.16 93.2614C132.365 92.8746 132.565 92.4878 132.759 92.1011L133.142 91.3246L133.507 90.5205L133.91 89.5855C136.153 84.266 137.216 78.5239 137.026 72.7545C134.396 74.5547 132.165 76.8784 130.475 79.58C129.99 80.3593 129.537 81.1583 129.117 81.9748L128.931 82.3195L128.883 82.4692C128.706 82.8909 128.528 83.3126 128.359 83.7415C127.739 85.3709 127.236 87.0425 126.854 88.7436C126.489 90.3028 126.248 91.8883 126.132 93.4853C125.967 95.2603 125.886 97.0421 125.889 98.8247C125.889 100.218 125.889 101.49 125.973 102.714C127.217 101.06 128.471 99.3584 129.605 97.5902V97.5902ZM135.781 79.1786C135.928 79.0143 136.037 78.8195 136.099 78.6072C136.168 78.9314 136.227 79.2441 136.277 79.5436C136.131 79.3982 135.964 79.2746 135.782 79.1786H135.781Z" fill="#999A1C"/>
<path d="M129.539 101.761C130.481 101.294 131.416 100.789 132.347 100.247L133.049 99.8164L133.507 99.5256L133.956 99.2086L134.48 98.8247C137.406 96.679 139.832 93.926 141.593 90.7546C139.595 90.8827 137.646 91.4207 135.865 92.3352C135.35 92.5969 134.854 92.8877 134.358 93.1858L134.144 93.3167L134.068 93.3821L133.376 93.8969C132.513 94.5759 131.7 95.3175 130.943 96.1129C130.243 96.837 129.602 97.6164 129.023 98.4409C128.373 99.3589 127.749 100.295 127.152 101.247C126.704 101.995 126.301 102.695 125.944 103.379C127.152 102.874 128.359 102.349 129.538 101.761H129.539ZM138.822 93.8125C138.954 93.7714 139.076 93.7014 139.178 93.6075C139.11 93.8062 139.035 94.0026 138.954 94.1964C138.929 94.0659 138.885 93.9399 138.823 93.8227V93.8125H138.822ZM126.488 96.3004C126.488 94.6268 126.432 92.9517 126.301 91.278C126.263 90.8418 126.222 90.4085 126.179 89.9781L126.085 89.1275C126.085 88.8759 125.954 88.1925 125.954 88.2579C125.898 87.9148 125.838 87.5745 125.777 87.2401C124.787 81.5575 122.578 76.1564 119.301 71.408C118.068 74.34 117.453 77.4946 117.494 80.6749C117.494 81.6099 117.569 82.5448 117.644 83.4231V83.9757C118.013 86.1449 118.577 88.2765 119.329 90.3445C119.865 91.8519 120.519 93.3148 121.284 94.7199C122.11 96.3017 123.006 97.846 123.97 99.3482C124.719 100.526 125.431 101.573 126.152 102.575C126.376 100.49 126.478 98.3943 126.487 96.3004H126.488ZM121.725 77.4759C121.773 77.2604 121.773 77.037 121.725 76.8216C121.955 77.0586 122.183 77.3014 122.409 77.5515C122.184 77.4874 121.949 77.4618 121.715 77.4759H121.725Z" fill="#CA15ED"/>
<path d="M129.605 97.5902C130.54 96.1798 131.365 94.7838 132.16 93.2614C132.365 92.8746 132.565 92.4878 132.759 92.1011L133.142 91.3246L133.507 90.5205L133.91 89.5855C136.153 84.266 137.216 78.5239 137.026 72.7545C134.396 74.5547 132.165 76.8784 130.475 79.58C129.99 80.3593 129.537 81.1583 129.117 81.9748L128.931 82.3195L128.883 82.4692C128.706 82.8909 128.528 83.3126 128.359 83.7415C127.739 85.3709 127.236 87.0425 126.854 88.7436C126.489 90.3028 126.248 91.8883 126.132 93.4853C125.967 95.2603 125.886 97.0421 125.889 98.8247C125.889 100.218 125.889 101.49 125.973 102.714C127.217 101.06 128.471 99.3584 129.605 97.5902V97.5902ZM135.781 79.1786C135.928 79.0143 136.037 78.8195 136.099 78.6072C136.168 78.9314 136.227 79.2441 136.277 79.5436C136.131 79.3982 135.964 79.2746 135.782 79.1786H135.781Z" fill="#CA15ED"/>
<path d="M129.539 101.761C130.481 101.294 131.416 100.789 132.347 100.247L133.049 99.8164L133.507 99.5256L133.956 99.2086L134.48 98.8247C137.406 96.679 139.832 93.926 141.593 90.7546C139.595 90.8827 137.646 91.4207 135.865 92.3352C135.35 92.5969 134.854 92.8877 134.358 93.1858L134.144 93.3167L134.068 93.3821L133.376 93.8969C132.513 94.5759 131.7 95.3175 130.943 96.1129C130.243 96.837 129.602 97.6164 129.023 98.4409C128.373 99.3589 127.749 100.295 127.152 101.247C126.704 101.995 126.301 102.695 125.944 103.379C127.152 102.874 128.359 102.349 129.538 101.761H129.539ZM138.822 93.8125C138.954 93.7714 139.076 93.7014 139.178 93.6075C139.11 93.8062 139.035 94.0026 138.954 94.1964C138.929 94.0659 138.885 93.9399 138.823 93.8227V93.8125H138.822Z" fill="#CA15ED"/>
<path d="M213.011 122.907L195.483 131.323C194.823 131.641 194.262 132.132 193.86 132.744C193.457 133.356 193.23 134.066 193.201 134.797C193.172 135.529 193.343 136.254 193.696 136.896C194.048 137.538 194.569 138.071 195.202 138.44L236.745 162.659C237.643 163.183 238.709 163.341 239.72 163.098C240.732 162.856 241.611 162.233 242.173 161.359L252.27 145.668" fill="#004285"/>
<path d="M308.349 82.3135L168.578 1.83883C167.619 1.28794 166.532 0.998659 165.426 1C164.32 1.00135 163.234 1.29327 162.276 1.8465C161.319 2.39973 160.524 3.19482 159.971 4.15205C159.418 5.10928 159.126 6.195 159.125 7.30036V91.0191C159.125 92.8905 160.123 94.6194 161.744 95.5558L310.754 181.501C311.268 181.798 311.851 181.954 312.445 181.955C313.038 181.955 313.622 181.799 314.136 181.502C314.65 181.205 315.077 180.778 315.373 180.264C315.67 179.75 315.826 179.167 315.825 178.574V95.1996C315.823 92.5841 315.131 90.0155 313.818 87.753C312.505 85.4905 310.618 83.6142 308.347 82.3135H308.349Z" fill="#004285"/>
<path d="M168.587 8.1699L304.137 86.0912C305.584 86.9239 306.787 88.123 307.623 89.5678C308.459 91.0127 308.9 92.6522 308.9 94.3213V157.075C308.899 157.676 308.74 158.266 308.44 158.786C308.139 159.306 307.707 159.738 307.187 160.039C306.667 160.34 306.077 160.499 305.477 160.501C304.876 160.503 304.285 160.347 303.763 160.049L165.525 80.8275C165.008 80.531 164.578 80.1032 164.279 79.5875C163.98 79.0717 163.823 78.4862 163.823 77.8902V10.9283C163.823 10.3709 163.969 9.82327 164.248 9.34029C164.526 8.85731 164.927 8.45598 165.409 8.17654C165.892 7.89711 166.439 7.7494 166.997 7.74824C167.555 7.74707 168.103 7.89249 168.587 8.1699V8.1699Z" fill="white"/>
<path d="M225.621 126.535C227.219 126.228 228.23 124.498 227.878 122.673C227.526 120.847 225.945 119.617 224.347 119.924C222.748 120.232 221.738 121.961 222.089 123.787C222.441 125.613 224.022 126.843 225.621 126.535Z" fill="#CA15ED"/>
<path d="M162.84 90.833C158.44 94.6165 155.113 99.4889 153.191 104.962C149.804 114.312 158.273 129.593 158.273 129.593L171.45 119.167" fill="#CA15ED"/>
<path d="M161.418 214.463L157.842 212.49L158.779 207.385C158.779 207.385 164.104 207.889 164.571 209.778" fill="#003B94"/>
<path d="M162.728 214.388C163.532 213.893 164.375 213.453 165.208 213.014C167.276 211.882 170.261 210.713 171.534 208.59C171.795 208.161 171.918 207.663 171.888 207.162C171.858 206.66 171.676 206.18 171.365 205.785C169.494 203.523 165.394 207.244 163.299 204.738C162.888 204.243 162.69 196.378 162.69 196.378L154.717 198.53C154.717 198.53 153.37 214.332 153.52 215.305C153.668 216.277 156.411 217.175 156.411 217.175C157.227 217.002 158.007 216.685 158.714 216.24C159.546 215.632 158.788 208.217 159.854 209.255C160.922 210.293 161.389 214.351 161.389 214.351C161.833 214.418 162.282 214.43 162.728 214.388V214.388Z" fill="#CA15ED"/>
<path d="M176.644 222.103L173.069 220.158L174.005 215.052C174.005 215.052 179.329 215.557 179.798 217.446" fill="#003B94"/>
<path d="M177.992 222.028C178.797 221.533 179.639 221.093 180.471 220.653C182.54 219.522 185.526 218.353 186.799 216.23C187.06 215.801 187.183 215.302 187.153 214.801C187.123 214.3 186.94 213.82 186.63 213.425C184.758 211.163 180.659 214.884 178.563 212.378C178.151 211.882 177.955 204.017 177.955 204.017L169.982 206.169C169.982 206.169 168.624 222.028 168.774 222.964C168.923 223.899 171.665 224.834 171.665 224.834C172.482 224.661 173.262 224.344 173.968 223.899C174.8 223.291 174.042 215.875 175.109 216.914C176.177 217.952 176.644 222.01 176.644 222.01C177.09 222.071 177.544 222.077 177.992 222.028Z" fill="#CA15ED"/>
<path d="M150.665 170.729L148.316 202.12C148.316 202.12 152.059 207.282 164.61 204.411L164.731 183.25M165.162 176.948C164.89 179.65 165.162 209.461 165.162 209.461C165.162 209.461 168.633 215.949 183.748 209.461L183.533 184.128" fill="black"/>
<path d="M149.495 181.098C150.524 181.811 150.881 178.153 151.956 178.78C155.871 181.052 160.027 182.884 164.347 184.24H164.44C164.543 184.19 164.655 184.161 164.769 184.156C164.884 184.15 164.998 184.167 165.106 184.207C165.213 184.246 165.312 184.307 165.395 184.385C165.479 184.463 165.546 184.557 165.592 184.662C168.261 185.457 170.975 186.081 173.725 186.532C177.252 187.093 180.172 184.483 183.793 184.307C183.793 170.448 183.86 131.005 177.955 122.589L160.481 116.717C160.397 118.157 152.002 127.882 152.209 139.74C152.442 153.103 150.702 165.707 150.402 169.887C150.355 170.598 149.532 180.342 149.495 181.098V181.098Z" fill="black"/>
<path d="M179.564 106.655L177.955 122.552C177.955 122.552 164.919 123.076 159.303 119.204V105.72" fill="#CA15ED"/>
<path d="M196.138 96.1913L194.809 98.0045C195.518 96.529 196.142 95.0149 196.68 93.4692C197.056 92.4136 195.361 91.9919 194.987 93.049L194.79 93.5914C194.953 93.0301 195.106 92.4659 195.249 91.8988C195.28 91.7866 195.288 91.6692 195.273 91.5536C195.258 91.4381 195.22 91.3267 195.162 91.2261C195.103 91.1254 195.025 91.0376 194.931 90.9677C194.838 90.8978 194.732 90.8472 194.619 90.8191C194.506 90.7909 194.388 90.7857 194.273 90.8037C194.158 90.8217 194.047 90.8625 193.948 90.9239C193.849 90.9852 193.763 91.0658 193.696 91.1608C193.628 91.2558 193.58 91.3634 193.555 91.4771C193.188 92.9451 192.748 94.3937 192.236 95.8176C192.522 94.5536 192.728 93.273 192.854 91.9832C192.966 90.8708 191.216 90.9173 191.113 91.9832C190.967 93.4518 190.705 94.9059 190.327 96.3309C190.326 95.8288 190.279 95.3279 190.186 94.8346C190.173 94.7106 190.134 94.5906 190.071 94.4828C190.009 94.375 189.924 94.2818 189.822 94.2094C189.774 94.0131 189.718 93.819 189.653 93.6277C189.587 93.4318 189.454 93.2654 189.277 93.1579C189.1 93.0503 188.891 93.0085 188.686 93.0398C188.482 93.071 188.295 93.1733 188.158 93.3287C188.022 93.4841 187.944 93.6827 187.939 93.8895L187.827 100.436C187.51 101.115 187.098 101.744 186.602 102.307C187.443 102.889 188.257 103.514 189.035 104.177C189.73 104.763 190.392 105.388 191.019 106.047C191.581 105.349 192.121 104.638 192.639 103.915C192.703 103.861 192.759 103.798 192.806 103.728C194.365 101.423 195.975 99.1528 197.636 96.9198C198.329 96.1535 196.803 95.3028 196.138 96.1913V96.1913Z" fill="#FFB5A9"/>
<path d="M171.291 92.1606C171.291 92.1606 177.45 93.8153 179.948 97.7719C181.513 100.509 182.892 103.349 184.075 106.271L188.623 99.2114C188.623 99.2114 194.145 100.904 196.334 103.616C196.334 103.616 189.784 117.924 184.075 119.148C178.366 120.373 172.302 110.751 172.302 110.751C172.302 110.751 171.048 114.772 171.291 110.479" fill="#CA15ED"/>
<path d="M175.203 107.45C173.413 105.995 172.062 104.072 171.3 101.896C170.561 99.3801 171.488 97.1728 172.347 94.8346C173.28 92.5174 173.824 90.0625 173.958 87.5686C174.034 85.1199 173.753 82.6683 173.584 80.2284C173.56 80.1241 173.56 80.0157 173.584 79.9114C172.761 77.1515 171.076 74.8148 167.753 74.5342C159.153 73.8042 158.666 83.3241 158.733 87.1949C158.797 91.0671 159.21 93.6844 156.355 95.3028C153.501 96.9198 151.441 101.166 154.164 104.597C156.888 108.029 154.445 106.777 152.629 109.825C150.815 112.874 151.282 116.679 155.007 118.055C158.731 119.429 176.044 116.848 177.636 115.248C178.201 114.604 178.493 113.766 178.451 112.91C178.062 110.759 176.909 108.82 175.203 107.45Z" fill="black"/>
<path style="mix-blend-mode:multiply" opacity="0.25" d="M107.662 170.064L75.9829 152.054L44.3129 170.102C44.3129 170.102 61.936 181.098 77.704 190.337C87.718 183.267 96.6176 175.18 107.662 170.064V170.064Z" fill="url(#paint4_linear_117_4937)"/>
<g filter="url(#filter0_d_117_4937)">
<path d="M50.4497 119.465V158.631L80.979 176.105L115.451 155.729V116.564" fill="black"/>
</g>
<path d="M50.4497 119.465V158.631L80.979 176.105L115.451 155.729V116.564" fill="url(#paint5_linear_117_4937)"/>
<path d="M80.979 136.94V176.106L115.451 155.73V116.564L80.979 136.94Z" fill="url(#paint6_linear_117_4937)"/>
<path d="M50.4497 119.465L85.8718 99.2856L115.45 116.564L80.979 136.94L50.4497 119.465Z" fill="url(#paint7_radial_117_4937)"/>
<g clip-path="url(#clip0_117_4937)">
<path d="M181.967 35.983L195.377 42.544C196.216 42.9826 196.955 43.5888 197.549 44.325C198.262 45.188 198.859 46.1404 199.325 47.158C199.846 48.2787 200.246 49.4521 200.516 50.658C200.799 51.8916 200.94 53.1535 200.936 54.419L200.786 76.519C200.794 77.6027 200.639 78.6815 200.326 79.719C200.096 80.5152 199.686 81.2476 199.126 81.859C198.663 82.3553 198.04 82.6737 197.366 82.759C196.621 82.8221 195.875 82.6471 195.236 82.259L182.114 74.938C181.332 74.4745 180.647 73.8652 180.094 73.143C179.436 72.3018 178.882 71.3833 178.446 70.408C177.964 69.3441 177.59 68.2341 177.33 67.095C177.061 65.9326 176.918 64.7443 176.905 63.551L176.763 42.208C176.744 41.125 176.874 40.0444 177.15 38.997C177.357 38.1796 177.731 37.4143 178.25 36.75C178.667 36.2146 179.252 35.8352 179.91 35.673C180.611 35.5363 181.338 35.6458 181.967 35.983V35.983Z" fill="url(#paint8_radial_117_4937)"/>
<path d="M182.174 46.626C182.169 46.2763 182.213 45.9276 182.304 45.59C182.372 45.3282 182.495 45.0838 182.664 44.873C182.801 44.703 182.991 44.5846 183.204 44.537C183.432 44.4976 183.666 44.5367 183.868 44.648L185.442 45.439L185.478 64.658C185.483 65.0009 185.439 65.3428 185.346 65.673C185.278 65.927 185.155 66.1627 184.984 66.363C184.846 66.5244 184.656 66.6324 184.446 66.668C184.218 66.696 183.986 66.6475 183.788 66.53L182.244 65.69L182.174 46.626Z" fill="white"/>
<path d="M188.761 47.108C189.013 47.243 189.234 47.4278 189.411 47.651C189.625 47.913 189.803 48.2014 189.943 48.509C190.098 48.8473 190.217 49.2009 190.297 49.564C190.384 49.9369 190.429 50.3182 190.431 50.701C190.435 51.039 190.39 51.3757 190.298 51.701C190.23 51.954 190.107 52.189 189.939 52.39C189.803 52.5523 189.616 52.6634 189.408 52.705C189.185 52.7393 188.957 52.6981 188.76 52.588C188.51 52.4513 188.29 52.2656 188.113 52.042C187.902 51.7806 187.725 51.4933 187.586 51.187C187.432 50.8513 187.313 50.5004 187.231 50.14C187.145 49.7695 187.1 49.3905 187.097 49.01C187.093 48.6723 187.136 48.3356 187.226 48.01C187.294 47.757 187.415 47.5213 187.581 47.319C187.717 47.1546 187.904 47.041 188.112 46.997C188.335 46.9597 188.564 46.9988 188.761 47.108V47.108Z" fill="white"/>
<path opacity="0.8" d="M193.807 49.647C194.063 49.7842 194.287 49.9716 194.468 50.198C194.684 50.4627 194.866 50.7541 195.007 51.065C195.165 51.4065 195.287 51.7639 195.369 52.131C195.458 52.5066 195.505 52.891 195.507 53.277C195.51 53.6183 195.464 53.9581 195.369 54.286C195.299 54.5408 195.173 54.7769 195.001 54.978C194.861 55.1413 194.67 55.2524 194.459 55.293C194.232 55.3261 194 55.2832 193.799 55.171C193.545 55.0325 193.321 54.8445 193.141 54.618C192.927 54.3536 192.748 54.0629 192.607 53.753C192.449 53.4145 192.326 53.0602 192.242 52.696C192.157 52.3224 192.113 51.9404 192.112 51.557C192.109 51.2163 192.154 50.8768 192.247 50.549C192.316 50.2941 192.439 50.0571 192.607 49.854C192.747 49.6889 192.938 49.5757 193.149 49.533C193.375 49.4973 193.607 49.5374 193.807 49.647Z" fill="white"/>
<path opacity="0.8" d="M194.856 57.193C194.988 57.265 195.103 57.3626 195.196 57.48C195.306 57.6149 195.396 57.7639 195.465 57.923C195.541 58.0926 195.594 58.271 195.625 58.454C195.657 58.6354 195.661 58.8205 195.636 59.003C195.608 59.1977 195.575 59.387 195.536 59.571C195.498 59.755 195.452 59.9324 195.4 60.103C195.35 60.2744 195.293 60.4387 195.23 60.596C195.168 60.7534 195.101 60.9037 195.03 61.047C194.923 61.2577 194.798 61.4584 194.655 61.647C194.526 61.8183 194.379 61.9755 194.217 62.116C194.067 62.2466 193.901 62.3585 193.723 62.449C193.551 62.536 193.369 62.5998 193.18 62.639C192.99 62.6782 192.796 62.6927 192.602 62.682C192.399 62.672 192.198 62.6384 192.002 62.582C191.791 62.5192 191.587 62.4358 191.392 62.333C191.178 62.2203 190.974 62.0902 190.781 61.944C190.648 61.8454 190.518 61.7377 190.392 61.621C190.266 61.5044 190.139 61.3804 190.009 61.249C189.885 61.1157 189.764 60.974 189.646 60.824C189.528 60.674 189.411 60.5187 189.293 60.358C189.189 60.2075 189.109 60.0424 189.053 59.868C188.995 59.6942 188.959 59.5138 188.946 59.331C188.935 59.1636 188.946 58.9954 188.98 58.831C189.007 58.6874 189.064 58.5511 189.147 58.431C189.212 58.3376 189.307 58.2692 189.416 58.237C189.522 58.2094 189.633 58.2136 189.736 58.249C189.86 58.2913 189.976 58.3542 190.079 58.435C190.203 58.5303 190.316 58.6386 190.416 58.758C190.464 58.814 190.513 58.8684 190.562 58.921C190.612 58.9737 190.661 59.0237 190.711 59.071C190.761 59.119 190.812 59.1647 190.863 59.208C190.915 59.2514 190.966 59.2927 191.018 59.332C191.134 59.4194 191.257 59.4969 191.386 59.564C191.503 59.625 191.626 59.6742 191.752 59.711C191.869 59.7452 191.99 59.7657 192.111 59.772C192.227 59.7794 192.344 59.7717 192.458 59.749C192.571 59.7248 192.681 59.6858 192.783 59.633C192.891 59.5788 192.992 59.5117 193.083 59.433C193.181 59.3478 193.269 59.2526 193.346 59.149C193.431 59.0355 193.506 58.9147 193.57 58.788C193.598 58.734 193.624 58.678 193.649 58.62C193.675 58.562 193.698 58.5027 193.72 58.442C193.738 58.38 193.757 58.3157 193.778 58.249C193.8 58.1824 193.818 58.1157 193.833 58.049C193.871 57.8956 193.925 57.7467 193.994 57.605C194.052 57.4849 194.13 57.3756 194.225 57.282C194.305 57.2026 194.406 57.1487 194.516 57.127C194.634 57.1107 194.753 57.1339 194.856 57.193V57.193Z" fill="white"/>
<path d="M193.913 60.554C194 60.7324 194.068 60.9199 194.113 61.113C194.157 61.2945 194.18 61.4803 194.181 61.667C194.184 61.8253 194.16 61.9829 194.11 62.133C194.074 62.2549 193.997 62.3607 193.892 62.433C193.788 62.4983 193.678 62.5549 193.564 62.602C193.452 62.6482 193.337 62.6847 193.218 62.711C193.1 62.7372 192.979 62.7533 192.857 62.759C192.732 62.7649 192.607 62.7606 192.482 62.746C192.278 62.7219 192.076 62.6746 191.882 62.605C191.674 62.5294 191.473 62.4343 191.282 62.321C191.072 62.1965 190.871 62.0557 190.682 61.9C190.474 61.729 190.277 61.5446 190.093 61.348C189.894 61.1352 189.707 60.9115 189.532 60.678C189.352 60.4373 189.178 60.1803 189.011 59.907C188.845 59.6337 188.687 59.3473 188.539 59.048C188.39 58.7453 188.252 58.4323 188.125 58.109C188.039 57.9003 187.959 57.689 187.885 57.475C187.811 57.261 187.743 57.0453 187.68 56.828C187.617 56.61 187.559 56.3907 187.506 56.17C187.454 55.9493 187.406 55.728 187.363 55.506C187.327 55.3254 187.318 55.1404 187.335 54.957C187.347 54.8137 187.389 54.6745 187.457 54.548C187.511 54.4492 187.594 54.3703 187.696 54.323C187.798 54.2802 187.913 54.277 188.017 54.314C188.143 54.3599 188.257 54.4346 188.349 54.532C188.465 54.6501 188.566 54.7821 188.649 54.925C188.746 55.0892 188.83 55.2607 188.899 55.438C188.974 55.6262 189.038 55.8189 189.088 56.015C189.111 56.1017 189.135 56.188 189.159 56.274C189.184 56.36 189.21 56.4457 189.238 56.531C189.266 56.6163 189.295 56.7007 189.325 56.784C189.355 56.8673 189.389 56.9503 189.425 57.033C189.503 57.2277 189.587 57.4153 189.677 57.596C189.767 57.7767 189.862 57.9487 189.962 58.112C190.062 58.276 190.167 58.4303 190.276 58.575C190.381 58.7145 190.494 58.848 190.614 58.975C190.725 59.093 190.843 59.2035 190.968 59.306C191.081 59.3995 191.2 59.4841 191.325 59.559C191.44 59.6267 191.562 59.6833 191.687 59.728C191.803 59.7692 191.924 59.7971 192.046 59.811C192.093 59.8161 192.141 59.8188 192.188 59.819C192.234 59.8191 192.28 59.8167 192.325 59.812C192.371 59.8075 192.416 59.8005 192.461 59.791C192.506 59.7817 192.55 59.7701 192.593 59.756C192.7 59.7215 192.813 59.7099 192.925 59.722C193.049 59.7365 193.169 59.7752 193.277 59.836C193.405 59.9073 193.519 59.9996 193.615 60.109C193.735 60.2428 193.835 60.3926 193.913 60.554Z" fill="white"/>
<path d="M182.981 66.852L183.833 67.315L184.804 67.842L185.489 69.926L182.253 68.157L182.981 66.852Z" fill="white"/>
</g>
<path d="M213.178 66.321L220.77 69.777L220.576 71.5111L214.467 68.7159L214.004 72.9881L219.358 75.4611L219.171 77.1371L213.818 74.6553L213.125 81.0022L211.663 80.316L213.178 66.321ZM223.107 74.8797L222.338 81.7011C222.279 82.224 222.295 82.6813 222.388 83.0731C222.558 83.7962 222.971 84.3108 223.625 84.617C224.567 85.058 225.27 84.822 225.735 83.909C225.987 83.4203 226.171 82.6738 226.286 81.6697L226.869 76.6053L228.235 77.2321L227.041 87.5296L225.76 86.9284L225.949 85.4241C225.728 85.7309 225.472 85.9571 225.181 86.1025C224.603 86.3954 223.946 86.3695 223.207 86.0246C222.062 85.4876 221.339 84.6358 221.037 83.4695C220.872 82.8434 220.839 82.0943 220.937 81.2223L221.722 74.2443L223.107 74.8797ZM230.369 78.2126L231.674 78.8115L231.501 80.2838C231.959 79.8554 232.421 79.6086 232.886 79.5435C233.351 79.4784 233.85 79.5677 234.382 79.8113C235.552 80.3482 236.28 81.2258 236.568 82.444C236.726 83.1111 236.742 83.9679 236.616 85.0145L235.818 91.6467L234.416 90.9896L235.196 84.479C235.272 83.8465 235.258 83.3023 235.156 82.8464C234.988 82.0868 234.581 81.5586 233.937 81.2618C233.61 81.1113 233.337 81.0297 233.117 81.0169C232.723 80.9851 232.359 81.1162 232.025 81.41C231.755 81.6457 231.565 81.9297 231.453 82.2618C231.341 82.594 231.245 83.0975 231.166 83.7723L230.531 89.1655L229.165 88.5201L230.369 78.2126ZM238.278 86.0274L242.167 87.8241L241.945 89.6208L238.063 87.8207L238.278 86.0274ZM250.147 82.7393C252.205 83.6759 253.625 85.1924 254.407 87.2887C255.018 88.9246 255.193 90.7385 254.934 92.7303C254.655 94.8791 253.982 96.4577 252.916 97.4661C251.669 98.6438 250.095 98.7863 248.193 97.8936C246.425 97.0632 245.126 95.6877 244.298 93.7668C243.573 91.9487 243.344 89.9715 243.609 87.8352C243.849 85.8983 244.441 84.4159 245.385 83.3881C246.601 82.0655 248.189 81.8496 250.147 82.7404L250.147 82.7393ZM248.599 96.2529C249.979 96.8982 251.056 96.7533 251.831 95.8181C252.606 94.8829 253.098 93.6137 253.308 92.0104C253.527 90.3159 253.343 88.7852 252.758 87.4183C252.173 86.0515 251.261 85.086 250.02 84.522C248.823 83.9759 247.781 84.0422 246.895 84.7207C246.009 85.3993 245.442 86.7286 245.196 88.7086C245.002 90.2928 245.16 91.7759 245.671 93.1579C246.181 94.54 247.157 95.5717 248.599 96.2529ZM256.133 94.2942L260.152 96.1545L259.91 97.9732L255.896 96.1074L256.133 94.2942ZM268.453 91.0691C270.581 92.0373 272.042 93.587 272.838 95.7183C273.46 97.3818 273.63 99.2216 273.349 101.238C273.046 103.413 272.339 105.006 271.226 106.018C269.927 107.201 268.294 107.33 266.328 106.408C264.502 105.547 263.166 104.142 262.321 102.192C261.582 100.346 261.357 98.341 261.646 96.1783C261.907 94.2178 262.53 92.7209 263.515 91.6877C264.783 90.3545 266.429 90.1483 268.453 91.0691ZM266.76 104.75C268.185 105.417 269.302 105.28 270.112 104.339C270.921 103.397 271.439 102.116 271.666 100.495C271.9 98.7787 271.72 97.2261 271.124 95.8375C270.527 94.4488 269.588 93.4621 268.305 92.8773C267.065 92.3111 265.985 92.3674 265.064 93.0463C264.143 93.7251 263.551 95.0674 263.289 97.0731C263.074 98.6757 263.225 100.181 263.741 101.589C264.258 102.998 265.264 104.051 266.76 104.75ZM275.534 98.9509L276.95 99.5959L276.737 101.112C277.245 100.681 277.754 100.436 278.265 100.379C278.776 100.321 279.32 100.426 279.895 100.693C281.164 101.275 281.946 102.2 282.239 103.466C282.401 104.159 282.404 105.046 282.249 106.125L281.264 112.963L279.742 112.249L280.703 105.537C280.796 104.885 280.791 104.322 280.689 103.849C280.517 103.06 280.082 102.504 279.383 102.182C279.028 102.018 278.731 101.928 278.491 101.91C278.061 101.868 277.661 101.995 277.289 102.291C276.99 102.528 276.778 102.817 276.65 103.157C276.523 103.498 276.41 104.016 276.312 104.712L275.528 110.271L274.047 109.576L275.534 98.9509ZM288.831 104.797C289.475 105.093 290.073 105.559 290.625 106.196C291.177 106.834 291.569 107.511 291.803 108.228C292.027 108.913 292.137 109.641 292.131 110.414C292.148 110.952 292.075 111.762 291.913 112.847L285.287 109.767C285.157 110.862 285.245 111.832 285.552 112.677C285.858 113.521 286.435 114.14 287.281 114.534C288.073 114.905 288.751 114.891 289.314 114.493C289.638 114.26 289.891 113.933 290.074 113.512L291.573 114.211C291.475 114.586 291.278 114.963 290.983 115.343C290.688 115.723 290.38 116.001 290.058 116.177C289.518 116.493 288.894 116.584 288.186 116.451C287.806 116.386 287.386 116.246 286.926 116.03C285.808 115.505 284.931 114.578 284.296 113.25C283.661 111.921 283.47 110.387 283.722 108.647C283.971 106.928 284.565 105.712 285.506 104.999C286.446 104.285 287.555 104.218 288.831 104.797ZM290.558 110.682C290.612 109.87 290.56 109.177 290.404 108.604C290.114 107.54 289.481 106.783 288.505 106.333C287.807 106.012 287.178 106.042 286.618 106.423C286.059 106.804 285.699 107.448 285.538 108.355L290.558 110.682Z" fill="url(#paint9_linear_117_4937)"/>
<defs>
<filter id="filter0_d_117_4937" x="0.449661" y="91.5644" width="165.001" height="159.54" filterUnits="userSpaceOnUse" color-interpolation-filters="sRGB">
<feFlood flood-opacity="0" result="BackgroundImageFix"/>
<feColorMatrix in="SourceAlpha" type="matrix" values="0 0 0 0 0 0 0 0 0 0 0 0 0 0 0 0 0 0 127 0" result="hardAlpha"/>
<feOffset dy="25"/>
<feGaussianBlur stdDeviation="25"/>
<feColorMatrix type="matrix" values="0 0 0 0 0.209139 0 0 0 0 0.0691446 0 0 0 0 0.478091 0 0 0 0.497159 0"/>
<feBlend mode="normal" in2="BackgroundImageFix" result="effect1_dropShadow_117_4937"/>
<feBlend mode="normal" in="SourceGraphic" in2="effect1_dropShadow_117_4937" result="shape"/>
</filter>
<radialGradient id="paint0_radial_117_4937" cx="0" cy="0" r="1" gradientUnits="userSpaceOnUse" gradientTransform="translate(192.705 156.408) rotate(90.2335) scale(101.32 172.276)">
<stop stop-color="#DB89EB"/>
<stop offset="0.260417" stop-color="#CA15ED"/>
<stop offset="1" stop-color="#004285"/>
</radialGradient>
<linearGradient id="paint1_linear_117_4937" x1="215.875" y1="149.121" x2="205.705" y2="162.908" gradientUnits="userSpaceOnUse">
<stop stop-color="#78B46A"/>
<stop offset="0.03" stop-color="#7F3500"/>
<stop offset="1" stop-color="white"/>
</linearGradient>
<linearGradient id="paint2_linear_117_4937" x1="178.207" y1="209.244" x2="156.86" y2="232.657" gradientUnits="userSpaceOnUse">
<stop stop-color="#78B46A"/>
<stop offset="0.03" stop-color="#7F3500"/>
<stop offset="1" stop-color="white"/>
</linearGradient>
<linearGradient id="paint3_linear_117_4937" x1="131.789" y1="111.046" x2="115.79" y2="128.597" gradientUnits="userSpaceOnUse">
<stop stop-color="#78B46A"/>
<stop offset="0.03" stop-color="#7F3500"/>
<stop offset="1" stop-color="white"/>
</linearGradient>
<linearGradient id="paint4_linear_117_4937" x1="96.3748" y1="162.621" x2="74.7183" y2="186.376" gradientUnits="userSpaceOnUse">
<stop stop-color="#78B46A"/>
<stop offset="0.03" stop-color="#7F3500"/>
<stop offset="1" stop-color="white"/>
</linearGradient>
<linearGradient id="paint5_linear_117_4937" x1="82.9504" y1="116.564" x2="82.9504" y2="176.105" gradientUnits="userSpaceOnUse">
<stop stop-color="#004285"/>
<stop offset="1" stop-color="#CA15ED"/>
</linearGradient>
<linearGradient id="paint6_linear_117_4937" x1="98.2151" y1="116.564" x2="98.2151" y2="176.106" gradientUnits="userSpaceOnUse">
<stop stop-color="#004285"/>
<stop offset="0.958333" stop-color="#CA15ED"/>
</linearGradient>
<radialGradient id="paint7_radial_117_4937" cx="0" cy="0" r="1" gradientUnits="userSpaceOnUse" gradientTransform="translate(82.9497 118.113) rotate(90) scale(18.8275 32.5)">
<stop stop-color="#CA15ED"/>
<stop offset="1" stop-color="#004285"/>
</radialGradient>
<radialGradient id="paint8_radial_117_4937" cx="0" cy="0" r="1" gradientUnits="userSpaceOnUse" gradientTransform="translate(194.205 48.908) rotate(122.692) scale(39.8058 20.4069)">
<stop stop-color="#CA15ED"/>
<stop offset="1" stop-color="#004285"/>
</radialGradient>
<linearGradient id="paint9_linear_117_4937" x1="251.656" y1="66.0039" x2="252.074" y2="116.813" gradientUnits="userSpaceOnUse">
<stop stop-color="#004285"/>
<stop offset="1" stop-color="#CA15ED"/>
</linearGradient>
<clipPath id="clip0_117_4937">
<rect width="24.293" height="51.919" fill="white" transform="translate(176.705 33.408)"/>
</clipPath>
</defs>
</svg>
