<svg width="183" height="40" viewBox="0 0 183 40" fill="none" xmlns="http://www.w3.org/2000/svg">
<rect x="19" y="11" width="19" height="19" rx="9.5" fill="url(#paint0_radial_4_57)"/>
<path d="M23.3892 17.3223C23.3892 15.8749 24.5625 14.7016 26.0098 14.7016V14.7016V22.7509C26.0098 24.1982 24.8365 25.3716 23.3892 25.3716V25.3716V17.3223Z" fill="white"/>
<circle cx="28.6305" cy="16.012" r="1.31034" fill="white"/>
<circle opacity="0.8" cx="32.5616" cy="16.012" r="1.31034" fill="white"/>
<path opacity="0.8" d="M33.3852 18.0243C33.7574 18.0243 34.066 18.3291 33.9901 18.6934C33.9071 19.0913 33.7505 19.4727 33.526 19.8178C33.178 20.3531 32.6815 20.7786 32.0955 21.0439C31.5095 21.3092 30.8586 21.4031 30.2201 21.3145C29.8076 21.2573 29.4115 21.1254 29.0508 20.9275C28.724 20.7481 28.6937 20.3142 28.9387 20.0331V20.0331C29.1789 19.7575 29.595 19.7388 29.9348 19.8737C30.0861 19.9337 30.2449 19.9758 30.4079 19.9984C30.791 20.0516 31.1816 19.9952 31.5332 19.8361C31.8848 19.6769 32.1826 19.4216 32.3915 19.1004C32.4765 18.9697 32.5453 18.8302 32.597 18.6851C32.7219 18.3345 33.013 18.0243 33.3852 18.0243V18.0243Z" fill="white"/>
<path d="M32.6652 19.8592C32.938 20.1124 32.9568 20.5458 32.6532 20.7611C32.3241 20.9945 31.9529 21.1667 31.5568 21.2673C30.9409 21.4236 30.2907 21.4004 29.6826 21.2004C29.0745 21.0003 28.5339 20.6318 28.1242 20.138C27.8602 19.8198 27.6576 19.4581 27.5249 19.0718C27.4037 18.7193 27.673 18.3778 28.0432 18.3345V18.3345C28.4063 18.2921 28.7268 18.558 28.8875 18.8864C28.9583 19.031 29.0464 19.1676 29.1504 19.2929C29.3962 19.5891 29.7206 19.8103 30.0854 19.9303C30.4503 20.0504 30.8404 20.0643 31.2099 19.9704C31.3594 19.9325 31.5029 19.8776 31.638 19.8072C31.968 19.6352 32.3924 19.6059 32.6652 19.8592V19.8592Z" fill="white"/>
<path d="M23.9855 25.7459H24.676H25.4606L26.0098 26.5883H23.3892L23.9855 25.7459Z" fill="white"/>
<path d="M55.6973 17.5645H50.7559V21.002H55.2969V23.5605H50.7559V29H47.6016V14.9961H55.6973V17.5645ZM67.2109 29H64.1348V27.4766H64.0859C63.3242 28.6549 62.3053 29.2441 61.0293 29.2441C58.7116 29.2441 57.5527 27.8411 57.5527 25.0352V19H60.6289V24.7617C60.6289 26.1745 61.1888 26.8809 62.3086 26.8809C62.862 26.8809 63.3047 26.6888 63.6367 26.3047C63.9688 25.9141 64.1348 25.3867 64.1348 24.7227V19H67.2109V29ZM79.4766 29H76.4004V23.4434C76.4004 21.8939 75.847 21.1191 74.7402 21.1191C74.2064 21.1191 73.7669 21.3242 73.4219 21.7344C73.0768 22.1445 72.9043 22.6654 72.9043 23.2969V29H69.8184V19H72.9043V20.582H72.9434C73.679 19.3646 74.75 18.7559 76.1562 18.7559C78.3698 18.7559 79.4766 20.1296 79.4766 22.877V29ZM87.3672 24.7422H82.0254V22.584H87.3672V24.7422ZM96.2344 29.2441C94.2292 29.2441 92.5951 28.5931 91.332 27.291C90.069 25.9824 89.4375 24.2799 89.4375 22.1836C89.4375 19.9701 90.0788 18.1797 91.3613 16.8125C92.6439 15.4453 94.3431 14.7617 96.459 14.7617C98.4577 14.7617 100.072 15.416 101.303 16.7246C102.54 18.0332 103.158 19.7585 103.158 21.9004C103.158 24.1009 102.517 25.875 101.234 27.2227C99.9583 28.5703 98.2917 29.2441 96.2344 29.2441ZM96.3711 17.4766C95.2643 17.4766 94.3854 17.8932 93.7344 18.7266C93.0833 19.5534 92.7578 20.6504 92.7578 22.0176C92.7578 23.4043 93.0833 24.5013 93.7344 25.3086C94.3854 26.1159 95.2383 26.5195 96.293 26.5195C97.3802 26.5195 98.2428 26.1289 98.8809 25.3477C99.5189 24.5599 99.8379 23.4694 99.8379 22.0762C99.8379 20.6243 99.5286 19.4948 98.9102 18.6875C98.2917 17.8802 97.4453 17.4766 96.3711 17.4766ZM110.629 24.7422H105.287V22.584H110.629V24.7422ZM119.496 29.2441C117.491 29.2441 115.857 28.5931 114.594 27.291C113.331 25.9824 112.699 24.2799 112.699 22.1836C112.699 19.9701 113.34 18.1797 114.623 16.8125C115.906 15.4453 117.605 14.7617 119.721 14.7617C121.719 14.7617 123.334 15.416 124.564 16.7246C125.801 18.0332 126.42 19.7585 126.42 21.9004C126.42 24.1009 125.779 25.875 124.496 27.2227C123.22 28.5703 121.553 29.2441 119.496 29.2441ZM119.633 17.4766C118.526 17.4766 117.647 17.8932 116.996 18.7266C116.345 19.5534 116.02 20.6504 116.02 22.0176C116.02 23.4043 116.345 24.5013 116.996 25.3086C117.647 26.1159 118.5 26.5195 119.555 26.5195C120.642 26.5195 121.505 26.1289 122.143 25.3477C122.781 24.5599 123.1 23.4694 123.1 22.0762C123.1 20.6243 122.79 19.4948 122.172 18.6875C121.553 17.8802 120.707 17.4766 119.633 17.4766ZM138.109 29H135.033V23.4434C135.033 21.8939 134.48 21.1191 133.373 21.1191C132.839 21.1191 132.4 21.3242 132.055 21.7344C131.71 22.1445 131.537 22.6654 131.537 23.2969V29H128.451V19H131.537V20.582H131.576C132.312 19.3646 133.383 18.7559 134.789 18.7559C137.003 18.7559 138.109 20.1296 138.109 22.877V29ZM149.545 24.8789H143.021C143.126 26.3307 144.04 27.0566 145.766 27.0566C146.866 27.0566 147.833 26.7962 148.666 26.2754V28.502C147.742 28.9967 146.54 29.2441 145.062 29.2441C143.448 29.2441 142.195 28.7982 141.303 27.9062C140.411 27.0078 139.965 25.7578 139.965 24.1562C139.965 22.4961 140.447 21.181 141.41 20.2109C142.374 19.2409 143.559 18.7559 144.965 18.7559C146.423 18.7559 147.549 19.1888 148.344 20.0547C149.145 20.9206 149.545 22.0957 149.545 23.5801V24.8789ZM146.684 22.9844C146.684 21.5521 146.104 20.8359 144.945 20.8359C144.451 20.8359 144.021 21.041 143.656 21.4512C143.298 21.8613 143.08 22.3724 143.002 22.9844H146.684Z" fill="url(#paint1_radial_4_57)"/>
<defs>
<radialGradient id="paint0_radial_4_57" cx="0" cy="0" r="1" gradientUnits="userSpaceOnUse" gradientTransform="translate(35.0517 12.6847) rotate(140.376) scale(20.8398)">
<stop stop-color="#3DE7E8"/>
<stop offset="0.993184" stop-color="#3DE7E8" stop-opacity="0.5"/>
</radialGradient>
<radialGradient id="paint1_radial_4_57" cx="0" cy="0" r="1" gradientUnits="userSpaceOnUse" gradientTransform="translate(108 20.5) rotate(90) scale(13.5 62)">
<stop stop-color="#3DE7E8"/>
<stop offset="1" stop-color="#3DE7E8" stop-opacity="0.5"/>
</radialGradient>
</defs>
</svg>
